<svg width="64" height="54" viewBox="0 0 64 54" fill="none" xmlns="http://www.w3.org/2000/svg">
<path d="M31.1879 53.8367C37.3764 53.8367 44.1735 54.2077 50.3571 48.0241C56.5407 41.8404 59.4916 37.6337 62.0711 33.6781C69.085 22.9222 55.037 10.3687 50.7282 7.3358C46.5806 4.4163 40.7107 0.162801 34.4034 0.162801C28.096 0.162801 18.5732 -0.084573 15.1104 3.3783C11.6475 6.84118 6.20587 12.2828 3.11412 15.3746C0.022372 18.4663 -1.70913 26.3814 2.49587 33.5544C6.70087 40.7274 15.4814 53.8367 31.1879 53.8367Z" fill="#D8D9DD"/>
<path d="M50.7281 7.33569C46.5805 4.41619 40.7106 0.162685 34.4033 0.162685C33.6435 0.162685 32.8368 0.159186 31.9999 0.158936V53.8384C37.9674 53.8568 44.4428 53.9386 50.357 48.0242C56.5406 41.8406 59.4915 37.6337 62.071 33.6782C69.0849 22.9222 55.0369 10.3688 50.7281 7.33569Z" fill="#B7B9C0"/>
<path d="M33.856 16.7183C36.0997 16.7183 37.9186 14.8994 37.9186 12.6556C37.9186 10.4119 36.0997 8.59302 33.856 8.59302C31.6123 8.59302 29.7934 10.4119 29.7934 12.6556C29.7934 14.8994 31.6123 16.7183 33.856 16.7183Z" fill="#B7B9C0"/>
<path d="M12.1788 19.3983C6.62501 19.3983 1.92939 23.0684 0.382263 28.1153C0.762638 29.9167 1.44314 31.7587 2.49576 33.5544C4.19014 36.4447 6.62814 40.2988 9.96201 43.8708C10.6815 44.0014 11.4215 44.0732 12.1786 44.0732C18.9924 44.0732 24.5161 38.5494 24.5161 31.7357C24.5161 24.9219 18.9925 19.3983 12.1788 19.3983Z" fill="#B7B9C0"/>
<path d="M60.1332 36.5599C58.8727 31.0844 53.9719 27 48.1136 27C41.2999 27 35.7761 32.5236 35.7761 39.3374C35.7761 45.356 40.0867 50.3652 45.7886 51.453C47.3357 50.6267 48.8644 49.5169 50.3571 48.0241C55.0735 43.3077 57.9085 39.7418 60.1332 36.5599Z" fill="#9B9DA6"/>
<path d="M33.856 8.59314C33.187 8.59314 32.5565 8.75589 32 9.04226V16.2681C32.5565 16.5546 33.187 16.7173 33.856 16.7173C36.0995 16.7173 37.918 14.8985 37.918 12.6553C37.918 10.412 36.0995 8.59314 33.856 8.59314Z" fill="#9B9DA6"/>
</svg>
