<svg width="1089" height="2121" viewBox="0 0 1089 2121" fill="none" xmlns="http://www.w3.org/2000/svg">
<g filter="url(#filter0_d_7_1179)">
<path d="M5.5 2V116.5C5.5 122.023 9.97715 126.5 15.5 126.5H118H441H768H1073C1078.52 126.5 1083 130.977 1083 136.5V653C1083 658.523 1078.52 663 1073 663H768H441H118H15.5C9.97715 663 5.5 667.477 5.5 673V1179.5C5.5 1185.02 9.97715 1189.5 15.5 1189.5H441H768H1073C1078.52 1189.5 1083 1193.98 1083 1199.5V1711C1083 1716.52 1078.52 1721 1073 1721H768H441H118H15.5C9.97715 1721 5.5 1725.48 5.5 1731V2123.5" stroke="white" stroke-width="3" stroke-linecap="round"/>
</g>
<defs>
<filter id="filter0_d_7_1179" x="0" y="0.5" width="1088.5" height="2132.5" filterUnits="userSpaceOnUse" color-interpolation-filters="sRGB">
<feFlood flood-opacity="0" result="BackgroundImageFix"/>
<feColorMatrix in="SourceAlpha" type="matrix" values="0 0 0 0 0 0 0 0 0 0 0 0 0 0 0 0 0 0 127 0" result="hardAlpha"/>
<feOffset dy="4"/>
<feGaussianBlur stdDeviation="2"/>
<feComposite in2="hardAlpha" operator="out"/>
<feColorMatrix type="matrix" values="0 0 0 0 0 0 0 0 0 0 0 0 0 0 0 0 0 0 0.25 0"/>
<feBlend mode="normal" in2="BackgroundImageFix" result="effect1_dropShadow_7_1179"/>
<feBlend mode="normal" in="SourceGraphic" in2="effect1_dropShadow_7_1179" result="shape"/>
</filter>
</defs>
</svg>
