<svg width="62" height="64" viewBox="0 0 62 64" fill="none" xmlns="http://www.w3.org/2000/svg">
<path d="M30.0588 28.903C29.1432 28.3747 27.7555 28.3169 26.9626 28.775L1.09645 43.7081C0.303479 44.1662 0.402601 44.967 1.31889 45.4962L31.53 62.9385C32.4455 63.4677 33.8332 63.5247 34.6262 63.0673L60.4923 48.1335C61.2853 47.6753 61.1861 46.8745 60.2698 46.3454L30.0588 28.903Z" fill="#BBC6E6"/>
<path d="M0.561035 43.1672V44.4847L1.6342 45.1239L1.9542 43.4849L0.561035 43.1672ZM61.0277 46.0394V47.3569L59.7461 48.0219L59.327 46.5686L61.0277 46.0394Z" fill="#BBC6E6"/>
<path d="M30.0588 27.5856C29.1432 27.0572 27.7555 26.9995 26.9626 27.4576L1.09645 42.3914C0.303479 42.8488 0.402601 43.6504 1.31889 44.1788L31.53 61.6211C32.4455 62.1502 33.8332 62.2072 34.6262 61.7499L60.4923 46.816C61.2853 46.3579 61.1861 45.5571 60.2698 45.0279L30.0588 27.5856Z" fill="#F3F5FB"/>
<path d="M22.5099 33.4728C22.303 33.3534 21.9909 33.3409 21.8121 33.4439L15.9866 36.807C15.8078 36.91 15.8305 37.0903 16.0365 37.2098L44.0295 53.3713C44.2355 53.4907 44.5477 53.5032 44.7264 53.4002L50.552 50.0371C50.7307 49.9332 50.7081 49.753 50.502 49.6343L22.5099 33.4728Z" fill="#DEE5F6"/>
<path d="M54.3546 45.1536C54.1345 45.2808 53.7778 45.2808 53.5577 45.1536C53.3376 45.0271 53.3376 44.8203 53.5577 44.6931C53.7778 44.5667 54.1345 44.5667 54.3546 44.6931C54.5747 44.8203 54.5747 45.0271 54.3546 45.1536ZM49.8356 47.7635C49.6155 47.89 49.258 47.89 49.0379 47.7635C48.8178 47.6363 48.8178 47.4303 49.0379 47.303C49.258 47.1758 49.6155 47.1758 49.8356 47.303C50.0549 47.4303 50.0549 47.6363 49.8356 47.7635ZM45.3158 50.3727C45.0957 50.4999 44.7382 50.4999 44.5181 50.3727C44.298 50.2455 44.298 50.0394 44.5181 49.9122C44.7382 49.785 45.0957 49.785 45.3158 49.9122C45.5359 50.0394 45.5359 50.2455 45.3158 50.3727ZM40.796 52.9819C40.5759 53.1091 40.2184 53.1091 39.9983 52.9819C39.779 52.8546 39.779 52.6486 39.9983 52.5214C40.2184 52.3949 40.5759 52.3949 40.796 52.5214C41.0161 52.6486 41.0161 52.8546 40.796 52.9819ZM36.2762 55.5918C36.0561 55.7183 35.6994 55.7183 35.4793 55.5918C35.2592 55.4646 35.2592 55.2578 35.4793 55.1313C35.6994 55.0041 36.0561 55.0041 36.2762 55.1313C36.4963 55.2578 36.4963 55.4646 36.2762 55.5918ZM31.7564 58.201C31.5371 58.3282 31.1796 58.3282 30.9595 58.201C30.7394 58.0738 30.7394 57.8677 30.9595 57.7405C31.1796 57.6133 31.5371 57.6133 31.7564 57.7405C31.9765 57.8677 31.9765 58.0738 31.7564 58.201Z" fill="#C4CBDC"/>
<path d="M23.0953 29.6898L56.625 49.0482L56.7303 48.9881L23.2006 29.6289L23.0953 29.6898ZM18.6028 32.2841L52.1325 51.6425L52.2379 51.5817L18.7074 32.2232L18.6028 32.2841Z" fill="#DEE3F1"/>
<path d="M55.0538 42.0285L26.314 58.6217L26.4193 58.6825L55.1592 42.0894L55.0538 42.0285Z" fill="#DEE3F1"/>
<path d="M28.5229 30.2393C28.3028 30.3665 27.9453 30.3665 27.7252 30.2393C27.5051 30.1128 27.5051 29.906 27.7252 29.7788C27.9453 29.6524 28.3028 29.6524 28.5229 29.7788C28.743 29.906 28.743 30.1128 28.5229 30.2393ZM24.0031 32.8492C23.783 32.9757 23.4255 32.9757 23.2054 32.8492C22.9853 32.722 22.9853 32.516 23.2054 32.3887C23.4255 32.2615 23.783 32.2615 24.0031 32.3887C24.2232 32.516 24.2232 32.722 24.0031 32.8492ZM19.4833 35.4584C19.2632 35.5856 18.9057 35.5856 18.6864 35.4584C18.4663 35.3312 18.4663 35.1251 18.6864 34.9979C18.9057 34.8707 19.2632 34.8707 19.4833 34.9979C19.7034 35.1251 19.7034 35.3312 19.4833 35.4584ZM14.9635 38.0676C14.7434 38.1948 14.3867 38.1948 14.1666 38.0676C13.9465 37.9403 13.9465 37.7343 14.1666 37.6071C14.3867 37.4806 14.7434 37.4806 14.9635 37.6071C15.1836 37.7343 15.1836 37.9403 14.9635 38.0676ZM10.4437 40.6767C10.2243 40.8039 9.86688 40.8039 9.64679 40.6767C9.42669 40.5503 9.42669 40.3435 9.64679 40.217C9.86688 40.0898 10.2243 40.0898 10.4437 40.217C10.6638 40.3435 10.6638 40.5503 10.4437 40.6767ZM5.92465 43.2867C5.70455 43.4139 5.34708 43.4139 5.12699 43.2867C4.90689 43.1595 4.90689 42.9534 5.12699 42.8262C5.34708 42.699 5.70455 42.699 5.92465 42.8262C6.14474 42.9534 6.14474 43.1595 5.92465 43.2867ZM32.828 32.7251C32.6079 32.8523 32.2505 32.8523 32.0304 32.7251C31.8103 32.5979 31.8103 32.3919 32.0304 32.2646C32.2505 32.1382 32.6079 32.1382 32.828 32.2646C33.0481 32.3919 33.0481 32.5979 32.828 32.7251ZM28.3082 35.3343C28.0881 35.4615 27.7307 35.4615 27.5113 35.3343C27.2913 35.2079 27.2913 35.001 27.5113 34.8746C27.7307 34.7474 28.0881 34.7474 28.3082 34.8746C28.5283 35.001 28.5283 35.2079 28.3082 35.3343ZM23.7884 37.9442C23.5683 38.0707 23.2116 38.0707 22.9916 37.9442C22.7715 37.817 22.7715 37.611 22.9916 37.4838C23.2116 37.3565 23.5683 37.3565 23.7884 37.4838C24.0085 37.611 24.0085 37.817 23.7884 37.9442ZM19.2694 40.5534C19.0493 40.6806 18.6918 40.6806 18.4718 40.5534C18.2517 40.4262 18.2517 40.2201 18.4718 40.0929C18.6918 39.9657 19.0493 39.9657 19.2694 40.0929C19.4887 40.2201 19.4887 40.4262 19.2694 40.5534ZM14.7496 43.1626C14.5295 43.2898 14.1721 43.2898 13.952 43.1626C13.7319 43.0361 13.7319 42.8293 13.952 42.7029C14.1721 42.5757 14.5295 42.5757 14.7496 42.7029C14.9697 42.8293 14.9697 43.0361 14.7496 43.1626ZM10.2298 45.7725C10.0097 45.899 9.65225 45.899 9.43215 45.7725C9.21284 45.6453 9.21284 45.4393 9.43215 45.312C9.65225 45.1848 10.0097 45.1848 10.2298 45.312C10.4499 45.4393 10.4499 45.6453 10.2298 45.7725ZM37.1332 35.211C36.9131 35.3382 36.5564 35.3382 36.3363 35.211C36.1162 35.0838 36.1162 34.8777 36.3363 34.7505C36.5564 34.6233 36.9131 34.6233 37.1332 34.7505C37.3533 34.8777 37.3533 35.0838 37.1332 35.211ZM32.6134 37.8201C32.3941 37.9474 32.0366 37.9474 31.8165 37.8201C31.5964 37.6929 31.5964 37.4869 31.8165 37.3597C32.0366 37.2332 32.3941 37.2332 32.6134 37.3597C32.8335 37.4869 32.8335 37.6929 32.6134 37.8201ZM28.0944 40.4301C27.8743 40.5565 27.5168 40.5565 27.2967 40.4301C27.0766 40.3029 27.0766 40.0968 27.2967 39.9696C27.5168 39.8424 27.8743 39.8424 28.0944 39.9696C28.3145 40.0968 28.3145 40.3029 28.0944 40.4301ZM23.5746 43.0393C23.3545 43.1665 22.997 43.1665 22.7769 43.0393C22.5568 42.912 22.5568 42.706 22.7769 42.5788C22.997 42.4516 23.3545 42.4516 23.5746 42.5788C23.7947 42.706 23.7947 42.912 23.5746 43.0393ZM19.0548 45.6484C18.8347 45.7756 18.4772 45.7756 18.2579 45.6484C18.0378 45.5212 18.0378 45.3152 18.2579 45.1879C18.4772 45.0615 18.8347 45.0615 19.0548 45.1879C19.2749 45.3152 19.2749 45.5212 19.0548 45.6484ZM14.535 48.2576C14.3149 48.3848 13.9582 48.3848 13.7381 48.2576C13.518 48.1312 13.518 47.9243 13.7381 47.7979C13.9582 47.6707 14.3149 47.6707 14.535 47.7979C14.7551 47.9243 14.7551 48.1312 14.535 48.2576ZM41.4384 37.6968C41.219 37.824 40.8616 37.824 40.6415 37.6968C40.4214 37.5696 40.4214 37.3636 40.6415 37.2363C40.8616 37.1091 41.219 37.1091 41.4384 37.2363C41.6585 37.3636 41.6585 37.5696 41.4384 37.6968ZM36.9193 40.306C36.6992 40.4332 36.3418 40.4332 36.1217 40.306C35.9016 40.1788 35.9016 39.9727 36.1217 39.8455C36.3418 39.7191 36.6992 39.7191 36.9193 39.8455C37.1394 39.9727 37.1394 40.1788 36.9193 40.306ZM32.3995 42.9152C32.1794 43.0424 31.822 43.0424 31.6019 42.9152C31.3818 42.7887 31.3818 42.5819 31.6019 42.4555C31.822 42.3282 32.1794 42.3282 32.3995 42.4555C32.6196 42.5819 32.6196 42.7887 32.3995 42.9152ZM27.8797 45.5251C27.6596 45.6516 27.303 45.6516 27.0829 45.5251C26.8628 45.3979 26.8628 45.1918 27.0829 45.0646C27.303 44.9374 27.6596 44.9374 27.8797 45.0646C28.0998 45.1918 28.0998 45.3979 27.8797 45.5251ZM23.3599 48.1343C23.1398 48.2615 22.7832 48.2615 22.5631 48.1343C22.343 48.0071 22.343 47.801 22.5631 47.6738C22.7832 47.5466 23.1398 47.5466 23.3599 47.6738C23.58 47.801 23.58 48.0071 23.3599 48.1343ZM18.8409 50.7434C18.6208 50.8707 18.2634 50.8707 18.0433 50.7434C17.8232 50.617 17.8232 50.4102 18.0433 50.2837C18.2634 50.1565 18.6208 50.1565 18.8409 50.2837C19.0602 50.4102 19.0602 50.617 18.8409 50.7434ZM45.7443 40.1827C45.5242 40.3091 45.1667 40.3091 44.9466 40.1827C44.7265 40.0555 44.7265 39.8494 44.9466 39.7222C45.1667 39.595 45.5242 39.595 45.7443 39.7222C45.9644 39.8494 45.9644 40.0555 45.7443 40.1827ZM41.2245 42.7918C41.0044 42.9191 40.6469 42.9191 40.4268 42.7918C40.2075 42.6646 40.2075 42.4586 40.4268 42.3314C40.6469 42.2041 41.0044 42.2041 41.2245 42.3314C41.4446 42.4586 41.4446 42.6646 41.2245 42.7918ZM36.7047 45.401C36.4846 45.5282 36.1279 45.5282 35.9078 45.401C35.6877 45.2738 35.6877 45.0677 35.9078 44.9405C36.1279 44.8141 36.4846 44.8141 36.7047 44.9405C36.9248 45.0677 36.9248 45.2738 36.7047 45.401ZM32.1849 48.011C31.9656 48.1374 31.6081 48.1374 31.388 48.011C31.1679 47.8837 31.1679 47.6769 31.388 47.5505C31.6081 47.4233 31.9656 47.4233 32.1849 47.5505C32.405 47.6769 32.405 47.8837 32.1849 48.011ZM27.6659 50.6201C27.4458 50.7473 27.0883 50.7473 26.8682 50.6201C26.6481 50.4929 26.6481 50.2869 26.8682 50.1596C27.0883 50.0324 27.4458 50.0324 27.6659 50.1596C27.886 50.2869 27.886 50.4929 27.6659 50.6201ZM23.1461 53.2293C22.926 53.3565 22.5685 53.3565 22.3484 53.2293C22.1283 53.1021 22.1283 52.896 22.3484 52.7688C22.5685 52.6424 22.926 52.6424 23.1461 52.7688C23.3662 52.896 23.3662 53.1021 23.1461 53.2293ZM50.0495 42.6677C49.8294 42.795 49.4719 42.795 49.2526 42.6677C49.0325 42.5413 49.0325 42.3345 49.2526 42.208C49.4719 42.0808 49.8294 42.0808 50.0495 42.208C50.2696 42.3345 50.2696 42.5413 50.0495 42.6677ZM45.5297 45.2777C45.3096 45.4041 44.9529 45.4041 44.7328 45.2777C44.5127 45.1505 44.5127 44.9444 44.7328 44.8172C44.9529 44.69 45.3096 44.69 45.5297 44.8172C45.7498 44.9444 45.7498 45.1505 45.5297 45.2777ZM41.0107 47.8869C40.7906 48.0141 40.4331 48.0141 40.213 47.8869C39.9929 47.7596 39.9929 47.5536 40.213 47.4264C40.4331 47.2999 40.7906 47.2999 41.0107 47.4264C41.23 47.5536 41.23 47.7596 41.0107 47.8869ZM36.4909 50.496C36.2708 50.6233 35.9133 50.6233 35.6932 50.496C35.4731 50.3696 35.4731 50.1628 35.6932 50.0363C35.9133 49.9091 36.2708 49.9091 36.4909 50.0363C36.7109 50.1628 36.7109 50.3696 36.4909 50.496ZM31.9711 53.106C31.751 53.2324 31.3935 53.2324 31.1734 53.106C30.9541 52.9788 30.9541 52.7727 31.1734 52.6455C31.3935 52.5183 31.751 52.5183 31.9711 52.6455C32.1911 52.7727 32.1911 52.9788 31.9711 53.106ZM27.4513 55.7151C27.2312 55.8424 26.8745 55.8424 26.6544 55.7151C26.4343 55.5879 26.4343 55.3819 26.6544 55.2547C26.8745 55.1274 27.2312 55.1274 27.4513 55.2547C27.6713 55.3819 27.6713 55.5879 27.4513 55.7151Z" fill="#C4CBDC"/>
<path d="M33.1915 29.4065L4.45166 45.9996L4.55703 46.0597L33.2969 29.4674L33.1915 29.4065Z" fill="#DEE3F1"/>
<path d="M14.1095 34.8777L47.6392 54.2361L47.7446 54.176L14.2149 34.8168L14.1095 34.8777ZM9.61704 37.472L43.1468 56.8304L43.2521 56.7695L9.72241 37.4111L9.61704 37.472ZM5.12378 40.0655L38.6543 59.424L38.7589 59.3631L5.22915 40.0047L5.12378 40.0655Z" fill="#DEE3F1"/>
<path d="M37.5638 31.9305L8.82397 48.5237L8.92934 48.5846L37.6692 31.9914L37.5638 31.9305ZM41.9369 34.4554L13.197 51.0478L13.3016 51.1087L42.0415 34.5155L41.9369 34.4554ZM46.3092 36.9795L17.5693 53.5727L17.6747 53.6335L46.4146 37.0404L46.3092 36.9795ZM50.6815 39.5036L21.9416 56.0968L22.047 56.1576L50.7868 39.5645L50.6815 39.5036Z" fill="#DEE3F1"/>
<path d="M46.0658 16.9561C46.0658 16.651 45.88 16.2958 45.6514 16.1639L17.7411 0.050013C17.5117 -0.0826697 17.3259 0.0578179 17.3259 0.362988V26.912C17.3259 27.2172 17.5117 27.5723 17.7411 27.705L45.6514 43.8189C45.88 43.9508 46.0658 43.8104 46.0658 43.5052V16.9561Z" fill="#8095D1"/>
<path d="M41.276 19.7222C41.276 19.417 41.0902 19.0611 40.8616 18.9292L12.9506 2.8153C12.7219 2.6834 12.5361 2.82389 12.5361 3.12906V29.6781C12.5361 29.9833 12.7219 30.3384 12.9506 30.4703L40.8616 46.5842C41.0902 46.7169 41.276 46.5764 41.276 46.2705V19.7222Z" fill="#4463B9"/>
<path d="M20.4923 23.2999L20.0466 23.499L22.5692 28.6509L23.0148 28.4519L20.4923 23.2999Z" fill="#F2F2F2"/>
<path d="M23.0671 22.1503L20.0466 23.4989L20.4127 24.2459L23.4324 22.8964L23.0671 22.1503Z" fill="#F2F2F2"/>
<path d="M29.8011 29.9193L30.2468 29.7202L27.7242 24.569L27.2786 24.7681L29.8011 29.9193Z" fill="#F2F2F2"/>
<path d="M27.2264 31.0697L30.2468 29.7202L29.8808 28.9733L26.8611 30.3227L27.2264 31.0697Z" fill="#F2F2F2"/>
<path d="M41.276 19.7433C41.276 19.4264 41.0832 19.0572 40.8452 18.9199L12.9217 2.79813C12.7086 2.67559 12.5361 2.80593 12.5361 3.09003V5.5993L41.276 22.1924V19.7433Z" fill="#385593"/>
<path d="M22.4661 15.0518C22.4661 14.8012 22.3139 14.5109 22.1266 14.4024L14.3881 9.93489C14.2008 9.8264 14.0486 9.94191 14.0486 10.1917C14.0486 10.4414 14.2008 10.7325 14.3881 10.841L22.1266 15.3078C22.3139 15.4162 22.4661 15.3015 22.4661 15.0518ZM25.7551 16.9499C25.7551 16.7001 25.6029 16.4098 25.4156 16.3013L23.334 15.0994C23.1467 14.9917 22.9945 15.1064 22.9945 15.3562C22.9945 15.6067 23.1467 15.897 23.334 16.0055L25.4156 17.2067C25.6029 17.3152 25.7551 17.2004 25.7551 16.9499ZM26.7354 24.288L26.4045 23.7448L23.5557 28.9608L23.8874 29.504L26.7354 24.288Z" fill="#F2F2F2"/>
</svg>
