<svg width="62" height="64" viewBox="0 0 62 64" fill="none" xmlns="http://www.w3.org/2000/svg">
<path d="M61.3297 22.8949C61.3297 21.1257 60.2523 19.0674 58.9255 18.3013L28.4965 0.732992C27.1695 -0.0330889 26.0923 0.781369 26.0923 2.55048V28.1951C26.0923 29.9644 27.1695 32.0228 28.4965 32.7889L58.9255 50.3571C60.2523 51.1231 61.3297 50.3087 61.3297 48.5396V22.8949Z" fill="#5D7BC1"/>
<path d="M27.6882 0.266361C27.1307 -0.0555568 26.2859 -0.0905032 25.803 0.188246L24.9281 0.693393C24.6557 0.850721 24.6899 1.12577 25.0044 1.30735L59.4438 21.191C60.682 20.4761 60.5265 19.2256 59.0967 18.4001L27.6882 0.266361Z" fill="#5D7BC1"/>
<path d="M61.0556 22.2747C61.0556 20.7452 60.1244 20.0412 58.9773 20.7036C58.873 20.7638 58.7885 20.9255 58.7885 21.0646V50.6937C58.7885 51.1108 59.0424 51.3028 59.3551 51.1222L60.4434 50.4938C60.7814 50.2988 61.0556 49.7748 61.0556 49.3243V22.2747Z" fill="#5D7BC1"/>
<path d="M60.1719 22.5149C60.1719 21.3289 59.4497 19.9493 58.5603 19.4358L26.3738 0.852796C25.1031 0.119195 24.0716 0.899117 24.0716 2.59327V27.1498C24.0716 28.8439 25.1031 30.8149 26.3738 31.5485L57.8697 49.7327C59.1403 50.4663 60.1719 49.6864 60.1719 47.9922V22.5149Z" fill="#4762AF"/>
<path d="M59.1996 21.8969C59.1996 21.4295 58.9149 20.8857 58.5642 20.6833L25.5925 1.64693C25.2419 1.44452 24.9573 1.65968 24.9573 2.12714V28.665C24.9573 29.1325 25.2419 29.6764 25.5925 29.8788L58.5642 48.9151C58.9149 49.1175 59.1996 48.9023 59.1996 48.4349V21.8969Z" fill="white"/>
<path d="M24.6507 29.2346C23.8411 28.7673 22.6144 28.7164 21.9133 29.1211L2.34847 40.4169C-0.175758 41.8742 0.141364 44.4237 3.05603 46.1066L32.6336 63.1831C34.2529 64.118 36.706 64.2197 38.1084 63.41L59.7058 50.9407C60.4071 50.5359 60.319 49.8278 59.5093 49.3603L24.6507 29.2346Z" fill="#5D7BC1"/>
<path d="M25.9454 28.4569C25.1503 27.9978 23.9457 27.9477 23.257 28.3453L3.04454 40.0151C1.11645 41.1283 1.35861 43.0757 3.58504 44.3611L33.2206 61.4711C34.8108 62.3893 37.2201 62.4892 38.5973 61.6941L59.808 49.448C60.4966 49.0505 60.4101 48.3549 59.615 47.8959L25.9454 28.4569ZM45.7966 13.3118L38.9951 9.38489V9.9269C38.9951 10.3756 39.2682 10.8976 39.6048 11.0919L45.1869 14.3148C45.5235 14.509 45.7966 14.3025 45.7966 13.8538V13.3118Z" fill="#4762AF"/>
<path d="M21.3795 53.7922L14.5778 49.8652V50.929C14.5778 51.8096 15.1141 52.834 15.7745 53.2154L20.1828 55.7605C20.8432 56.1419 21.3795 55.7365 21.3795 54.8558V53.7922ZM24.7803 31.9274L22.5131 33.2365L24.7803 34.5454L27.0475 33.2365L24.7803 31.9274Z" fill="#4762AF"/>
<path d="M24.7802 32.0857L22.7872 33.2365L24.7802 34.3871L26.7734 33.2365L24.7802 32.0857Z" fill="#5D7BC1"/>
<path d="M22.5131 33.2365L20.2458 34.5454L22.5131 35.8544L24.7803 34.5454L22.5131 33.2365Z" fill="#4762AF"/>
<path d="M22.5131 33.3946L20.5199 34.5454L22.5131 35.6961L24.5061 34.5454L22.5131 33.3946Z" fill="#5D7BC1"/>
<path d="M22.5131 35.8544L20.2458 37.1633L22.5131 38.4723L24.7803 37.1633L22.5131 35.8544Z" fill="#4762AF"/>
<path d="M22.5131 36.0126L20.5199 37.1633L22.5131 38.3141L24.5061 37.1633L22.5131 36.0126Z" fill="#5D7BC1"/>
<path d="M22.5131 38.4723L20.2458 39.7813L22.5131 41.0903L24.7803 39.7813L22.5131 38.4723Z" fill="#4762AF"/>
<path d="M22.5131 38.6306L20.5199 39.7813L22.5131 40.9321L24.5061 39.7813L22.5131 38.6306Z" fill="#5D7BC1"/>
<path d="M22.5131 41.0902L20.2458 42.3993L22.5131 43.7082L24.7803 42.3993L22.5131 41.0902Z" fill="#4762AF"/>
<path d="M22.5131 41.2485L20.5199 42.3993L22.5131 43.5499L24.5061 42.3993L22.5131 41.2485Z" fill="#5D7BC1"/>
<path d="M27.0475 33.2365L24.7802 34.5454L27.0475 35.8544L29.3146 34.5454L27.0475 33.2365Z" fill="#4762AF"/>
<path d="M27.0475 33.3946L25.0543 34.5454L27.0475 35.6961L29.0405 34.5454L27.0475 33.3946Z" fill="#5D7BC1"/>
<path d="M24.7803 34.5454L22.5131 35.8545L24.7803 37.1634L27.0475 35.8545L24.7803 34.5454Z" fill="#4762AF"/>
<path d="M24.7802 34.7037L22.7872 35.8544L24.7802 37.0051L26.7734 35.8544L24.7802 34.7037Z" fill="#5D7BC1"/>
<path d="M24.7803 37.1633L22.5131 38.4722L24.7803 39.7813L27.0475 38.4722L24.7803 37.1633Z" fill="#4762AF"/>
<path d="M24.7802 37.3217L22.7872 38.4723L24.7802 39.6231L26.7734 38.4723L24.7802 37.3217Z" fill="#5D7BC1"/>
<path d="M24.7803 39.7813L22.5131 41.0902L24.7803 42.3993L27.0475 41.0902L24.7803 39.7813Z" fill="#4762AF"/>
<path d="M24.7802 39.9395L22.7872 41.0902L24.7802 42.241L26.7734 41.0902L24.7802 39.9395Z" fill="#5D7BC1"/>
<path d="M24.7803 42.3993L22.5131 43.7082L24.7803 45.0171L27.0475 43.7082L24.7803 42.3993Z" fill="#4762AF"/>
<path d="M24.7802 42.5574L22.7872 43.7082L24.7802 44.859L26.7734 43.7082L24.7802 42.5574Z" fill="#5D7BC1"/>
<path d="M29.3146 34.5454L27.0475 35.8545L29.3146 37.1634L31.5819 35.8545L29.3146 34.5454Z" fill="#4762AF"/>
<path d="M29.3146 34.7037L27.3216 35.8544L29.3146 37.0051L31.3078 35.8544L29.3146 34.7037Z" fill="#5D7BC1"/>
<path d="M27.0475 35.8544L24.7802 37.1633L27.0475 38.4723L29.3146 37.1633L27.0475 35.8544Z" fill="#4762AF"/>
<path d="M27.0475 36.0126L25.0543 37.1633L27.0475 38.3141L29.0405 37.1633L27.0475 36.0126Z" fill="#5D7BC1"/>
<path d="M27.0475 38.4723L24.7802 39.7813L27.0475 41.0903L29.3146 39.7813L27.0475 38.4723Z" fill="#4762AF"/>
<path d="M27.0475 38.6306L25.0543 39.7813L27.0475 40.9321L29.0405 39.7813L27.0475 38.6306Z" fill="#5D7BC1"/>
<path d="M27.0475 41.0902L24.7802 42.3993L27.0475 43.7082L29.3146 42.3993L27.0475 41.0902Z" fill="#4762AF"/>
<path d="M27.0475 41.2485L25.0543 42.3993L27.0475 43.5499L29.0405 42.3993L27.0475 41.2485Z" fill="#5D7BC1"/>
<path d="M27.0475 43.7082L24.7802 45.0171L27.0475 46.3262L29.3146 45.0171L27.0475 43.7082Z" fill="#4762AF"/>
<path d="M27.0475 43.8665L25.0543 45.0171L27.0475 46.1679L29.0405 45.0171L27.0475 43.8665Z" fill="#5D7BC1"/>
<path d="M31.5819 35.8544L29.3146 37.1633L31.5819 38.4723L33.849 37.1633L31.5819 35.8544Z" fill="#4762AF"/>
<path d="M31.5819 36.0126L29.5887 37.1633L31.5819 38.3141L33.575 37.1633L31.5819 36.0126Z" fill="#5D7BC1"/>
<path d="M29.3146 37.1633L27.0475 38.4722L29.3146 39.7813L31.5819 38.4722L29.3146 37.1633Z" fill="#4762AF"/>
<path d="M29.3146 37.3217L27.3216 38.4723L29.3146 39.6231L31.3078 38.4723L29.3146 37.3217Z" fill="#5D7BC1"/>
<path d="M29.3146 39.7813L27.0475 41.0902L29.3146 42.3993L31.5819 41.0902L29.3146 39.7813Z" fill="#4762AF"/>
<path d="M29.3146 39.9395L27.3216 41.0902L29.3146 42.241L31.3078 41.0902L29.3146 39.9395Z" fill="#5D7BC1"/>
<path d="M29.3146 42.3993L27.0475 43.7082L29.3146 45.0171L31.5819 43.7082L29.3146 42.3993Z" fill="#4762AF"/>
<path d="M29.3146 42.5574L27.3216 43.7082L29.3146 44.859L31.3078 43.7082L29.3146 42.5574Z" fill="#5D7BC1"/>
<path d="M29.3146 45.0171L27.0475 46.3261L29.3146 47.6351L31.5819 46.3261L29.3146 45.0171Z" fill="#4762AF"/>
<path d="M29.3146 45.1754L27.3216 46.3262L29.3146 47.4769L31.3078 46.3262L29.3146 45.1754Z" fill="#5D7BC1"/>
<path d="M33.849 37.1633L31.5819 38.4722L33.849 39.7813L36.1163 38.4722L33.849 37.1633Z" fill="#4762AF"/>
<path d="M33.8491 37.3217L31.856 38.4723L33.8491 39.6231L35.8422 38.4723L33.8491 37.3217Z" fill="#5D7BC1"/>
<path d="M31.5819 38.4723L29.3146 39.7813L31.5819 41.0903L33.849 39.7813L31.5819 38.4723Z" fill="#4762AF"/>
<path d="M31.5819 38.6306L29.5887 39.7813L31.5819 40.9321L33.575 39.7813L31.5819 38.6306Z" fill="#5D7BC1"/>
<path d="M31.5819 41.0902L29.3146 42.3993L31.5819 43.7082L33.849 42.3993L31.5819 41.0902Z" fill="#4762AF"/>
<path d="M31.5819 41.2485L29.5887 42.3993L31.5819 43.5499L33.575 42.3993L31.5819 41.2485Z" fill="#5D7BC1"/>
<path d="M31.5819 43.7082L29.3146 45.0171L31.5819 46.3262L33.849 45.0171L31.5819 43.7082Z" fill="#4762AF"/>
<path d="M31.5819 43.8665L29.5887 45.0171L31.5819 46.1679L33.575 45.0171L31.5819 43.8665Z" fill="#5D7BC1"/>
<path d="M31.5819 46.3262L29.3146 47.6351L31.5819 48.9441L33.849 47.6351L31.5819 46.3262Z" fill="#4762AF"/>
<path d="M31.5819 46.4844L29.5887 47.6351L31.5819 48.7858L33.575 47.6351L31.5819 46.4844Z" fill="#5D7BC1"/>
<path d="M36.1163 38.4723L33.8491 39.7813L36.1163 41.0903L38.3836 39.7813L36.1163 38.4723Z" fill="#4762AF"/>
<path d="M36.1163 38.6306L34.1231 39.7813L36.1163 40.9321L38.1095 39.7813L36.1163 38.6306Z" fill="#5D7BC1"/>
<path d="M33.849 39.7813L31.5819 41.0902L33.849 42.3993L36.1163 41.0902L33.849 39.7813Z" fill="#4762AF"/>
<path d="M33.8491 39.9395L31.856 41.0902L33.8491 42.241L35.8422 41.0902L33.8491 39.9395Z" fill="#5D7BC1"/>
<path d="M33.849 42.3993L31.5819 43.7082L33.849 45.0171L36.1163 43.7082L33.849 42.3993Z" fill="#4762AF"/>
<path d="M33.8491 42.5574L31.856 43.7082L33.8491 44.859L35.8422 43.7082L33.8491 42.5574Z" fill="#5D7BC1"/>
<path d="M33.849 45.0171L31.5819 46.3261L33.849 47.6351L36.1163 46.3261L33.849 45.0171Z" fill="#4762AF"/>
<path d="M33.8491 45.1754L31.856 46.3262L33.8491 47.4769L35.8422 46.3262L33.8491 45.1754Z" fill="#5D7BC1"/>
<path d="M33.849 47.6351L31.5819 48.9441L33.849 50.253L36.1163 48.9441L33.849 47.6351Z" fill="#4762AF"/>
<path d="M33.8491 47.7934L31.856 48.9442L33.8491 50.0949L35.8422 48.9442L33.8491 47.7934Z" fill="#5D7BC1"/>
<path d="M38.3836 39.7813L36.1163 41.0902L38.3836 42.3993L40.6507 41.0902L38.3836 39.7813Z" fill="#4762AF"/>
<path d="M38.3836 39.9395L36.3904 41.0902L38.3836 42.241L40.3766 41.0902L38.3836 39.9395Z" fill="#5D7BC1"/>
<path d="M36.1163 41.0902L33.8491 42.3993L36.1163 43.7082L38.3836 42.3993L36.1163 41.0902Z" fill="#4762AF"/>
<path d="M36.1163 41.2485L34.1231 42.3993L36.1163 43.5499L38.1095 42.3993L36.1163 41.2485Z" fill="#5D7BC1"/>
<path d="M36.1163 43.7082L33.8491 45.0171L36.1163 46.3262L38.3836 45.0171L36.1163 43.7082Z" fill="#4762AF"/>
<path d="M36.1163 43.8665L34.1231 45.0171L36.1163 46.1679L38.1095 45.0171L36.1163 43.8665Z" fill="#5D7BC1"/>
<path d="M36.1163 46.3262L33.8491 47.6351L36.1163 48.9441L38.3836 47.6351L36.1163 46.3262Z" fill="#4762AF"/>
<path d="M36.1163 46.4844L34.1231 47.6351L36.1163 48.7858L38.1095 47.6351L36.1163 46.4844Z" fill="#5D7BC1"/>
<path d="M40.6507 41.0902L38.3836 42.3993L40.6507 43.7082L42.918 42.3993L40.6507 41.0902Z" fill="#4762AF"/>
<path d="M40.6507 41.2485L38.6577 42.3993L40.6507 43.5499L42.6439 42.3993L40.6507 41.2485Z" fill="#5D7BC1"/>
<path d="M38.3836 42.3993L36.1163 43.7082L38.3836 45.0171L40.6507 43.7082L38.3836 42.3993Z" fill="#4762AF"/>
<path d="M38.3836 42.5574L36.3904 43.7082L38.3836 44.859L40.3766 43.7082L38.3836 42.5574Z" fill="#5D7BC1"/>
<path d="M38.3836 45.0171L36.1163 46.3261L38.3836 47.6351L40.6507 46.3261L38.3836 45.0171Z" fill="#4762AF"/>
<path d="M38.3836 45.1754L36.3904 46.3262L38.3836 47.4769L40.3766 46.3262L38.3836 45.1754Z" fill="#5D7BC1"/>
<path d="M38.3836 47.6351L36.1163 48.9441L38.3836 50.253L40.6507 48.9441L38.3836 47.6351Z" fill="#4762AF"/>
<path d="M38.3836 47.7934L36.3904 48.9442L38.3836 50.0949L40.3766 48.9442L38.3836 47.7934Z" fill="#5D7BC1"/>
<path d="M42.918 42.3993L40.6507 43.7082L42.918 45.0171L45.1851 43.7082L42.918 42.3993Z" fill="#4762AF"/>
<path d="M42.918 42.5574L40.9248 43.7082L42.918 44.859L44.911 43.7082L42.918 42.5574Z" fill="#5D7BC1"/>
<path d="M40.6507 43.7082L38.3836 45.0171L40.6507 46.3262L42.918 45.0171L40.6507 43.7082Z" fill="#4762AF"/>
<path d="M40.6507 43.8665L38.6577 45.0171L40.6507 46.1679L42.6439 45.0171L40.6507 43.8665Z" fill="#5D7BC1"/>
<path d="M40.6507 46.3262L38.3836 47.6351L40.6507 48.9441L42.918 47.6351L40.6507 46.3262Z" fill="#4762AF"/>
<path d="M40.6507 46.4844L38.6577 47.6351L40.6507 48.7858L42.6439 47.6351L40.6507 46.4844Z" fill="#5D7BC1"/>
<path d="M45.1851 43.7082L42.918 45.0171L45.1851 46.3262L47.4524 45.0171L45.1851 43.7082Z" fill="#4762AF"/>
<path d="M45.1851 43.8665L43.1921 45.0171L45.1851 46.1679L47.1783 45.0171L45.1851 43.8665Z" fill="#5D7BC1"/>
<path d="M42.918 45.0171L40.6507 46.3261L42.918 47.6351L45.1851 46.3261L42.918 45.0171Z" fill="#4762AF"/>
<path d="M42.918 45.1754L40.9248 46.3262L42.918 47.4769L44.911 46.3262L42.918 45.1754Z" fill="#5D7BC1"/>
<path d="M42.918 47.6351L40.6507 48.9441L42.918 50.253L45.1851 48.9441L42.918 47.6351Z" fill="#4762AF"/>
<path d="M42.918 47.7934L40.9248 48.9442L42.918 50.0949L44.911 48.9442L42.918 47.7934Z" fill="#5D7BC1"/>
<path d="M47.4524 45.0171L45.1851 46.3261L47.4524 47.6351L49.7195 46.3261L47.4524 45.0171Z" fill="#4762AF"/>
<path d="M47.4524 45.1754L45.4592 46.3262L47.4524 47.4769L49.4454 46.3262L47.4524 45.1754Z" fill="#5D7BC1"/>
<path d="M45.1851 46.3262L42.918 47.6351L45.1851 48.9441L47.4524 47.6351L45.1851 46.3262Z" fill="#4762AF"/>
<path d="M45.1851 46.4844L43.1921 47.6351L45.1851 48.7858L47.1783 47.6351L45.1851 46.4844Z" fill="#5D7BC1"/>
<path d="M49.7195 46.3262L47.4524 47.6351L49.7195 48.9441L51.9868 47.6351L49.7195 46.3262Z" fill="#4762AF"/>
<path d="M49.7195 46.4844L47.7265 47.6351L49.7195 48.7858L51.7127 47.6351L49.7195 46.4844Z" fill="#5D7BC1"/>
<path d="M51.9868 47.6351L49.7195 48.9441L51.9868 50.253L54.2539 48.9441L51.9868 47.6351Z" fill="#4762AF"/>
<path d="M51.9868 47.7934L49.9936 48.9442L51.9868 50.0949L53.9798 48.9442L51.9868 47.7934Z" fill="#5D7BC1"/>
<path d="M47.4524 47.6351L45.1851 48.9441L47.4524 50.253L49.7195 48.9441L47.4524 47.6351Z" fill="#4762AF"/>
<path d="M47.4524 47.7934L45.4592 48.9442L47.4524 50.0949L49.4454 48.9442L47.4524 47.7934Z" fill="#5D7BC1"/>
<path d="M20.0089 44.8804C19.5084 44.5915 18.7501 44.5599 18.3167 44.8102L11.2487 48.891L24.8519 56.7447L31.92 52.6641C32.3535 52.4138 32.2989 51.9761 31.7985 51.6871L20.0089 44.8804Z" fill="#5D7BC1"/>
</svg>
