<svg width="58" height="64" viewBox="0 0 58 64" fill="none" xmlns="http://www.w3.org/2000/svg">
<path d="M37.1429 29.3887L19.5457 39.5483V56.6272L37.1429 46.4675V29.3887Z" fill="#4FC1F4"/>
<path d="M26.179 55.8838L1.21717 41.4721C0.883915 41.2797 0.613525 41.4842 0.613525 41.9284V48.6109C0.613525 48.9218 0.802874 49.2839 1.03615 49.4187L25.5749 63.5861C25.9082 63.7785 26.179 63.574 26.179 63.1298V55.8838ZM52.5836 41.5198C52.5836 41.1748 52.3738 41.0161 52.1148 41.1654L26.179 56.1398V63.0162C26.179 63.5338 26.494 63.772 26.8822 63.5479L52.1735 48.9461C52.3999 48.8154 52.5836 48.464 52.5836 48.1622V41.5198Z" fill="#C4CADD"/>
<path d="M26.7447 33.0658L6.45679 44.7789L26.5046 56.3538L46.7929 44.6403L26.7447 33.0658Z" fill="#243462"/>
<path d="M25.0105 56.0584L27.7261 55.8486L28.2302 60.914L26.4605 61.9357C26.4605 61.9357 26.2579 62.1467 25.7599 61.8566C25.262 61.5665 25.0105 56.0584 25.0105 56.0584Z" fill="#C4CADD"/>
<path d="M3.07031 45.233L2.40039 44.8463V48.3L3.07031 48.6867V45.233ZM4.93312 46.3085L4.2632 45.9218V49.3755L4.93312 49.7622V46.3085ZM6.79593 47.384L6.12601 46.9973V50.451L6.79593 50.8377V47.384ZM8.65836 48.4595L7.98844 48.0728V51.5261L8.65836 51.9132V48.4595Z" fill="#848BA6"/>
<path d="M22.2555 57.3119C22.6554 57.5429 22.9803 58.1056 22.9803 58.5672C22.9803 59.0292 22.6554 59.2167 22.2555 58.9861C21.8552 58.7551 21.5303 58.1923 21.5303 57.7303C21.5303 57.2683 21.8552 57.0809 22.2555 57.3119Z" fill="#4FC1F4"/>
<path d="M25.3154 63.4361C25.3154 63.4361 26.1679 64.1216 27.0544 63.4293C27.9406 62.7367 27.0949 60.7731 27.0949 60.7731L25.3355 60.7788L25.3154 63.4361Z" fill="#C4CADD"/>
<path d="M26.179 56.4431C26.179 56.4431 26.4232 56.4821 26.7019 56.3882C26.8458 56.3398 26.9644 56.3083 27.1068 56.2L28.503 55.3892V58.6911L27.2647 59.4144V61.4688L28.503 60.7622V62.5928L26.9814 63.4903C26.9814 63.4903 26.8239 63.5861 26.6697 63.6512C26.5851 63.6868 26.4961 63.711 26.405 63.7232C26.36 63.7281 26.316 63.7346 26.2786 63.7368C26.2206 63.7399 26.179 63.7387 26.179 63.7387V56.4431Z" fill="#A3ABC1"/>
<path d="M0.651294 41.4899C0.74256 41.3388 1.16102 41.4399 1.16102 41.4399L25.6472 55.577C25.6472 55.577 25.9971 55.9232 26.6204 55.6285C27.1873 55.3608 48.1823 43.1906 51.9946 40.9805C52.3756 40.7594 52.5835 41.2642 52.5835 41.2642L52.5824 41.8618L27.1302 56.5563C27.1302 56.5563 26.3966 57.1956 25.1019 56.484C23.8075 55.7724 0.613424 42.3454 0.613424 42.3454C0.613424 42.3454 0.560028 41.641 0.651294 41.4899Z" fill="#F3F5FB"/>
<path d="M26.2017 26.9752L26.8572 26.7079L52.1064 40.7329L52.0568 41.0098L50.3568 41.93L26.2017 27.9769V26.9752Z" fill="#F3F5FB"/>
<path d="M52.1063 40.7329C52.1063 40.7329 52.6198 40.892 52.5834 41.2941L52.2835 41.4123L51.9483 41.154L51.8946 40.8549L52.1063 40.7329ZM1.36126 41.4585L1.34839 40.6988L25.4176 26.8026L26.2015 26.9752V27.9159L2.09518 41.8338L1.36126 41.4585Z" fill="#F3F5FB"/>
<path d="M25.3835 26.8223C25.3835 26.8223 25.9955 26.3273 26.8571 26.7079L26.7503 27.029L26.1788 27.5747L25.8622 27.4888L25.6153 27.185L25.3835 26.8223Z" fill="#F3F5FB"/>
<path d="M26.1786 27.7561L26.2831 27.6663L51.179 41.268C51.2529 41.3085 51.2733 41.3433 51.2756 41.3831C51.2779 41.4232 51.2616 41.4683 51.1919 41.5077L45.7091 44.6327L26.1631 33.3479L26.1786 27.7561Z" fill="#C4CADD"/>
<path d="M26.0293 27.6963C26.0293 27.6963 26.1319 27.6198 26.283 27.6663L26.2808 27.7262L26.1781 27.811L26.0482 27.7538L26.0293 27.6963Z" fill="#C4CADD"/>
<path d="M49.4202 46.1085C49.8204 45.8771 50.1454 46.0649 50.1454 46.5273C50.1454 46.9893 49.8204 47.5524 49.4202 47.7834C49.0195 48.0148 48.6946 47.827 48.6946 47.3646C48.6946 46.9026 49.0195 46.3395 49.4202 46.1085Z" fill="#4FC1F4"/>
<path d="M46.2914 48.5867C46.2914 48.033 45.954 47.7782 45.5389 48.0179L33.2222 55.1287C32.8068 55.3688 32.4697 56.0129 32.4697 56.5666C32.4697 57.1202 32.8068 57.3751 33.2222 57.1354L45.5389 50.0246C45.954 49.7845 46.2914 49.1403 46.2914 48.5867Z" fill="#848BA6"/>
<path d="M0.613369 41.9712C0.613369 41.9712 0.411145 41.0578 1.63093 40.5359L1.37758 40.8934C2.71021 42.3223 2.40877 42.5286 0.777723 41.7394L0.613369 41.9712Z" fill="#F3F5FB"/>
<path d="M6.70096 44.638L26.1789 33.3926V27.7921C26.1789 27.7921 26.1228 27.6418 26.0168 27.7027C24.1032 28.8021 5.83299 39.3022 2.03163 41.5244C1.9468 41.5744 1.83054 41.6789 1.85781 41.799C1.88091 41.9001 2.03542 42.0182 2.10434 42.064C2.88256 42.5832 6.70096 44.638 6.70096 44.638Z" fill="#C4CADD"/>
<path d="M16.2256 41.0498L35.608 39.1329L35.541 46.2327C35.5403 46.2937 35.5433 46.3569 35.5209 46.4004C35.4982 46.444 35.4925 46.4436 35.4058 46.4936L27.0412 51.3227C26.9026 51.403 26.7606 51.4659 26.6246 51.4689C26.489 51.4716 26.3591 51.4144 26.2262 51.3402L16.4464 45.8623C16.3036 45.7824 16.2994 45.787 16.2627 45.7131C16.226 45.6393 16.2256 45.5257 16.2256 45.4189V41.0498Z" fill="#4FC1F4"/>
<path d="M26.5996 42.7854L1.03418 28.025V33.0166C1.03418 33.2241 1.16029 33.4653 1.31593 33.5551L26.1971 47.9202C26.419 48.0486 26.5996 47.9122 26.5996 47.6161V42.7854ZM53.0027 27.5414L26.5996 42.7854V47.777C26.5996 47.9842 26.7257 48.0796 26.8814 47.9899L52.721 33.0715C52.8766 32.9817 53.0027 32.7401 53.0027 32.533V27.5414Z" fill="#BBC6E6"/>
<path d="M26.4712 40.3728L26.5996 42.7854L53.0027 27.5414L53.0129 25.5312L26.4712 40.3728Z" fill="#4867BC"/>
<path d="M1.08568 25.5013L1.03418 28.025L26.5996 42.7854V40.4481L1.08568 25.5013Z" fill="#4867BC"/>
<path d="M28.8059 10.9923C27.9224 10.4822 26.584 10.4269 25.8191 10.8685L1.59422 24.8545C0.829253 25.2965 0.925442 26.069 1.80856 26.5791L25.2851 40.133C26.1682 40.6431 27.5069 40.6988 28.2719 40.2569L52.4968 26.2708C53.2617 25.8293 53.1655 25.0564 52.282 24.5463L28.8059 10.9923Z" fill="#375096"/>
<path d="M25.4314 42.1129L28.147 41.9031L28.6511 46.9681L26.8814 47.9899C26.8814 47.9899 26.6788 48.2012 26.1808 47.9111C25.6829 47.6206 25.4314 42.1129 25.4314 42.1129Z" fill="#BBC6E6"/>
<path d="M1.02124 27.4577L26.086 41.8383C26.086 41.8383 26.5746 42.1136 27.1979 41.8194C27.8216 41.5248 53.0057 26.962 53.0057 26.962L53.0027 27.5414L27.5508 42.236C27.5508 42.236 26.8173 42.8752 25.5225 42.1636C24.2282 41.4521 1.03412 28.025 1.03412 28.025L1.02124 27.4577Z" fill="#F3F5FB"/>
<path d="M3.4912 30.4005L2.82129 30.0139V33.4676L3.4912 33.8542V30.4005ZM5.35401 31.476L4.6841 31.0894V34.5431L5.35401 34.9297V31.476ZM7.21682 32.5515L6.54691 32.1649V35.6182L7.21682 36.0052V32.5515ZM9.07925 33.627L8.40934 33.24V36.6937L9.07925 37.0803V33.627ZM22.676 42.3669C23.0763 42.5979 23.4012 43.1603 23.4012 43.6223C23.4012 44.0843 23.0763 44.2718 22.676 44.0408C22.2761 43.8098 21.9512 43.2474 21.9512 42.7854C21.9512 42.3234 22.2761 42.1359 22.676 42.3669ZM49.841 31.0814C50.2413 30.85 50.5662 31.0379 50.5662 31.5002C50.5662 31.9623 50.2413 32.5254 49.841 32.7564C49.4404 32.9878 49.1155 32.7999 49.1155 32.3375C49.1155 31.8755 49.4404 31.3124 49.841 31.0814Z" fill="#637DC6"/>
<path d="M26.5996 42.4977C26.5996 42.4977 26.8651 42.5109 27.1434 42.4367C27.2873 42.3981 27.4085 42.3219 27.5509 42.236L28.9237 41.4434V43.92L27.6853 44.6346V46.2634L28.9104 45.556V46.8428L26.8371 48.0209C26.8371 48.0209 26.8147 48.0331 26.7874 48.0429C26.7647 48.0505 26.7386 48.0558 26.7208 48.0588C26.6825 48.0653 26.5996 48.0618 26.5996 48.0618V42.4977Z" fill="#8EA1D6"/>
<path d="M46.7123 33.7255C46.7123 33.1715 46.3749 32.9166 45.9598 33.1567L33.6431 40.2675C33.2277 40.5072 32.8906 41.1514 32.8906 41.7054C32.8906 42.2591 33.2277 42.5139 33.6431 42.2742L45.9598 35.163C46.3749 34.9233 46.7123 34.2792 46.7123 33.7255Z" fill="#637DC6"/>
<path d="M42.1615 24.1611V25.482L41.2473 25.9043L41.0632 24.7027L42.1615 24.1611Z" fill="#98AADA"/>
<path d="M27.9013 16.7243C27.1829 16.3096 26.0945 16.2646 25.4723 16.6236L11.442 24.7243C10.8201 25.0833 10.8982 25.7115 11.6165 26.1262L25.2826 34.0163C26.0006 34.431 27.089 34.4761 27.7112 34.1171L41.7415 26.0168C42.3633 25.6574 42.2853 25.0291 41.5669 24.6144L27.9013 16.7243Z" fill="#98A9D9"/>
<path d="M11.0222 23.9748V25.2847L11.5736 25.7694L12.1072 24.7095L11.0222 23.9748Z" fill="#98AADA"/>
<path d="M27.9013 15.3735C27.1829 14.9588 26.0945 14.9137 25.4723 15.2727L11.442 23.3731C10.8201 23.7324 10.8982 24.3607 11.6165 24.7754L25.2826 32.6655C26.0006 33.0802 27.089 33.1253 27.7112 32.7663L41.7415 24.6655C42.3633 24.3065 42.2853 23.6783 41.5669 23.2636L27.9013 15.3735Z" fill="#4463B9"/>
<path d="M26.5688 18.1326L29.7196 19.9519V20.5582L32.0497 21.9037H33.026L36.6365 23.9884L33.7542 25.6524H32.7552L30.405 27.0093V27.7356L26.8142 29.809L23.5385 27.9178V27.3297L21.2046 25.9823H20.1056L16.5466 23.9187L19.6073 22.1517L20.6903 22.1423L22.9943 20.8119L22.9913 20.198L26.5688 18.1326Z" fill="#3E5AA9"/>
<path d="M26.5688 17.5911L29.7196 19.41V20.0167L32.0497 21.3622H33.026L36.6365 23.4465L33.7542 25.1109H32.7552L30.405 26.4678V27.1941L26.8142 29.2675L23.5385 27.3759V26.7882L21.2046 25.4408H20.1056L16.5466 23.3772L19.6073 21.6102L20.6903 21.6004L22.9943 20.2704L22.9913 19.6565L26.5688 17.5911Z" fill="#637DC6"/>
<path d="M23.0946 22.2282C23.6082 21.9317 24.4424 21.9317 24.9559 22.2282C25.4695 22.5248 25.4695 23.0061 24.9559 23.3026C24.4424 23.5995 23.6082 23.5995 23.0946 23.3026C22.5808 23.0061 22.5808 22.5248 23.0946 22.2282Z" fill="#D9DFF1"/>
<path d="M24.9253 21.839C25.2915 21.6277 25.8864 21.6277 26.2526 21.839C26.6188 22.0503 26.6188 22.3938 26.2526 22.6051C25.8864 22.8164 25.2915 22.8164 24.9253 22.6051C24.5591 22.3938 24.5591 22.0503 24.9253 21.839Z" fill="#D9DFF1"/>
<path d="M25.8312 22.0821C26.5856 21.6466 27.8106 21.6466 28.565 22.0821C29.3197 22.5179 29.3197 23.225 28.565 23.6608C27.8106 24.0963 26.5856 24.0963 25.8312 23.6608C25.0765 23.225 25.0765 22.5179 25.8312 22.0821Z" fill="#D9DFF1"/>
<path d="M26.5887 23.8737C27.2802 23.4746 28.4026 23.4746 29.0937 23.8737C29.7849 24.2728 29.7849 24.9208 29.0937 25.3199C28.4026 25.7191 27.2802 25.7191 26.5887 25.3199C25.8975 24.9208 25.8975 24.2728 26.5887 23.8737Z" fill="#D9DFF1"/>
<path d="M24.956 22.2283L23.0947 23.3026L26.5886 25.32L28.4499 24.2456L24.956 22.2283Z" fill="#D9DFF1"/>
<path d="M6.77363 26.136C6.77363 26.136 6.50173 27.1986 7.65183 27.8629L26.0978 38.5126C26.0978 38.5126 26.8116 39.1075 28.2544 38.0244L47.7721 26.7559C47.7721 26.7559 48.9468 26.1496 48.4973 24.9397L26.5995 36.3067L6.77363 26.136Z" fill="#4FC1F4"/>
<path d="M26.5996 32.2153L1.03418 17.4552V22.4468C1.03418 22.6539 1.16029 22.8951 1.31593 22.9849L26.1971 37.35C26.419 37.4784 26.5996 37.3421 26.5996 37.0459V32.2153ZM53.0027 16.9712L26.5996 32.2153V37.2069C26.5996 37.4144 26.7257 37.5098 26.8814 37.4201L52.721 22.5013C52.8766 22.4115 53.0027 22.1703 53.0027 21.9628V16.9712Z" fill="#BBC6E6"/>
<path d="M26.4712 29.8026L26.5996 32.2152L53.0027 16.9712L53.0129 14.9611L26.4712 29.8026Z" fill="#4867BC"/>
<path d="M1.08568 14.9312L1.03418 17.4552L26.5996 32.2153V29.8779L1.08568 14.9312Z" fill="#4867BC"/>
<path d="M28.8059 0.422131C27.9224 -0.0879737 26.584 -0.143264 25.8191 0.298297L1.59422 14.2847C0.829253 14.7263 0.925442 15.4992 1.80856 16.0089L25.2851 29.5632C26.1682 30.073 27.5069 30.1286 28.2719 29.6871L52.4968 15.7007C53.2617 15.2591 53.1655 14.4862 52.282 13.9764L28.8059 0.422131Z" fill="#375096"/>
<path d="M25.4314 31.5427L28.147 31.3329L28.6511 36.398L26.8814 37.4201C26.8814 37.4201 26.6788 37.631 26.1808 37.3409C25.6829 37.0508 25.4314 31.5427 25.4314 31.5427Z" fill="#BBC6E6"/>
<path d="M1.02124 16.8875L26.086 31.2685C26.086 31.2685 26.5746 31.5438 27.1979 31.2492C27.8216 30.9549 53.0057 16.3922 53.0057 16.3922L53.0027 16.9712L27.5508 31.6658C27.5508 31.6658 26.8173 32.305 25.5225 31.5934C24.2282 30.8818 1.03412 17.4552 1.03412 17.4552L1.02124 16.8875Z" fill="#F3F5FB"/>
<path d="M3.4912 19.8304L2.82129 19.4437V22.8974L3.4912 23.2841V19.8304ZM5.35401 20.9059L4.6841 20.5192V23.9729L5.35401 24.3596V20.9059ZM7.21682 21.9814L6.54691 21.5947V25.0484L7.21682 25.4351V21.9814ZM9.07925 23.0569L8.40934 22.6702V26.1236L9.07925 26.5106V23.0569ZM22.676 31.7968C23.0763 32.0278 23.4012 32.5902 23.4012 33.0522C23.4012 33.5142 23.0763 33.7017 22.676 33.4707C22.2761 33.2397 21.9512 32.6773 21.9512 32.2153C21.9512 31.7533 22.2761 31.5658 22.676 31.7968ZM49.841 20.5113C50.2413 20.2803 50.5662 20.4677 50.5662 20.9301C50.5662 21.3925 50.2413 21.9552 49.841 22.1866C49.4404 22.4176 49.1155 22.2298 49.1155 21.7678C49.1155 21.3054 49.4404 20.7423 49.841 20.5113Z" fill="#637DC6"/>
<path d="M26.5996 31.9274C26.5996 31.9274 26.8651 31.9411 27.1434 31.8665C27.2873 31.8282 27.4085 31.7517 27.5509 31.6658L28.9237 30.8735V33.3498L27.6853 34.0648V35.6932L28.9104 34.9862V36.273L26.8371 37.4511C26.8371 37.4511 26.8147 37.4632 26.7874 37.4727C26.7657 37.4798 26.7434 37.4851 26.7208 37.4886C26.6825 37.4954 26.5996 37.492 26.5996 37.492V31.9274Z" fill="#8EA1D6"/>
<path d="M46.7123 23.1553C46.7123 22.6016 46.3749 22.3468 45.9598 22.5865L33.6431 29.6973C33.2277 29.9374 32.8906 30.5815 32.8906 31.1352C32.8906 31.6888 33.2277 31.9437 33.6431 31.704L45.9598 24.5928C46.3749 24.3531 46.7123 23.7089 46.7123 23.1553Z" fill="#637DC6"/>
<path d="M27.9013 8.28201C27.1829 7.86696 26.0945 7.82189 25.4723 8.18128L11.442 16.2816C10.8201 16.6406 10.8982 17.2689 11.6165 17.6839L25.2826 25.5737C26.0006 25.9884 27.089 26.0338 27.7112 25.6744L41.7415 17.5741C42.3633 17.2151 42.2853 16.5865 41.5669 16.1718L27.9013 8.28201Z" fill="#323654"/>
<path d="M42.1615 11.1108V12.4317L41.2473 12.854L41.0632 11.652L42.1615 11.1108Z" fill="#98AADA"/>
<path d="M27.9013 3.674C27.1829 3.25933 26.0945 3.21426 25.4723 3.57327L11.442 11.6736C10.8201 12.033 10.8982 12.6612 11.6165 13.0759L25.2826 20.9661C26.0006 21.3807 27.089 21.4258 27.7112 21.0664L41.7415 12.9661C42.3633 12.6071 42.2853 11.9788 41.5669 11.5641L27.9013 3.674Z" fill="#98A9D9"/>
<path d="M11.0222 10.9246V12.2345L11.5736 12.7192L12.1072 11.6592L11.0222 10.9246Z" fill="#98AADA"/>
<path d="M27.9013 2.32317C27.1829 1.9085 26.0945 1.86343 25.4723 2.22244L11.442 10.3228C10.8201 10.6821 10.8982 11.3104 11.6165 11.7251L25.2826 19.6148C26.0006 20.0299 27.089 20.075 27.7112 19.7156L41.7415 11.6153C42.3633 11.2563 42.2853 10.628 41.5669 10.2129L27.9013 2.32317Z" fill="#4463B9"/>
<path d="M26.5688 5.0824L29.7196 6.90128V7.50795L32.0497 8.85346H33.026L36.6365 10.9378L33.7542 12.6018H32.7552L30.405 13.9591V14.6854L26.8142 16.7584L23.5385 14.8672V14.2794L21.2046 12.932H20.1056L16.5466 10.8685L19.6073 9.10151L20.6903 9.09166L22.9943 7.76168L22.9913 7.14781L26.5688 5.0824Z" fill="#3E5AA9"/>
<path d="M26.5688 4.54083L29.7196 6.35971V6.96639L32.0497 8.31189H33.026L36.6365 10.3962L33.7542 12.0602H32.7552L30.405 13.4171V14.1438L26.8142 16.2168L23.5385 14.3256V13.7379L21.2046 12.3905H20.1056L16.5466 10.3269L19.6073 8.55994L20.6903 8.5501L22.9943 7.21973L22.9913 6.60624L26.5688 4.54083Z" fill="#637DC6"/>
<path d="M23.0946 9.17759C23.6082 8.88107 24.4424 8.88107 24.9559 9.17759C25.4695 9.47449 25.4695 9.95581 24.9559 10.2523C24.4424 10.5489 23.6082 10.5489 23.0946 10.2523C22.5808 9.95581 22.5808 9.47449 23.0946 9.17759Z" fill="#D9DFF1"/>
<path d="M24.9253 8.78865C25.2915 8.57696 25.8864 8.57696 26.2526 8.78865C26.6188 8.99996 26.6188 9.34306 26.2526 9.55476C25.8864 9.76607 25.2915 9.76607 24.9253 9.55476C24.5591 9.34306 24.5591 8.99996 24.9253 8.78865Z" fill="#D9DFF1"/>
<path d="M25.8312 9.03183C26.5856 8.59632 27.8106 8.59632 28.565 9.03183C29.3197 9.46733 29.3197 10.1747 28.565 10.6102C27.8106 11.0461 26.5856 11.0461 25.8312 10.6102C25.0765 10.1747 25.0765 9.46733 25.8312 9.03183Z" fill="#D9DFF1"/>
<path d="M26.5887 10.8234C27.2802 10.4243 28.4026 10.4243 29.0937 10.8234C29.7849 11.2226 29.7849 11.8705 29.0937 12.2697C28.4026 12.6688 27.2802 12.6688 26.5887 12.2697C25.8975 11.8705 25.8975 11.2226 26.5887 10.8234Z" fill="#D9DFF1"/>
<path d="M24.956 9.17761L23.0947 10.2524L26.5886 12.2697L28.4499 11.1949L24.956 9.17761Z" fill="#D9DFF1"/>
<path d="M48.8329 47.2851L55.0552 50.7486C55.0552 50.7486 57.1831 51.3209 57.1831 48.4583V37.8411C57.1831 37.8411 57.1994 36.279 55.4434 35.2649L43.7504 28.5142L42.5647 29.1989L54.0044 35.8034C54.0044 35.8034 55.5612 36.7282 55.8407 37.7737C56.152 38.9375 55.9308 48.214 55.9308 48.214C55.9308 48.214 55.9153 49.8996 54.8659 49.2937C53.8165 48.6882 49.8588 46.6928 49.8588 46.6928L48.8329 47.2851ZM21.8469 57.7375L22.7986 58.287L13.4209 63.7008C13.4209 63.7008 11.3953 64.7252 11.3953 61.3885V37.1178C11.3953 37.1178 11.1991 35.3978 12.9832 34.3677L16.5497 32.3088L17.5355 32.8776L13.5368 35.4311C13.5368 35.4311 12.7567 35.9674 12.6295 37.3825C12.4939 38.8898 12.3636 61.6941 12.6295 61.5248C12.6295 61.5248 12.5666 63.1991 13.6349 62.5822L21.4966 58.0431L21.8469 57.7375Z" fill="#4FC1F4"/>
</svg>
